<svg width="25" height="36" viewBox="0 0 25 36" fill="none" xmlns="http://www.w3.org/2000/svg">
<circle cx="12.5" cy="17.6666" r="11.5" stroke="#BC0000" stroke-width="2"/>
<path d="M12.5 11.4166V17.6666H18.75" stroke="#BC0000" stroke-width="2" stroke-linecap="round"/>
<path d="M5.25 34.3333C5.25 34.8856 5.69772 35.3333 6.25 35.3333C6.80228 35.3333 7.25 34.8856 7.25 34.3333H5.25ZM17.75 34.3333C17.75 34.8856 18.1977 35.3333 18.75 35.3333C19.3023 35.3333 19.75 34.8856 19.75 34.3333H17.75ZM7.25 34.3333V27.0416H5.25V34.3333H7.25ZM19.75 34.3333V27.0416H17.75V34.3333H19.75Z" fill="#BC0000"/>
<path d="M19.75 0.99996C19.75 0.447675 19.3023 -4.04602e-05 18.75 -4.04119e-05C18.1977 -4.03637e-05 17.75 0.447675 17.75 0.99996L19.75 0.99996ZM7.25 0.999961C7.25 0.447676 6.80228 -3.93674e-05 6.25 -3.93192e-05C5.69772 -3.92709e-05 5.25 0.447676 5.25 0.999961L7.25 0.999961ZM17.75 0.99996L17.75 8.29163L19.75 8.29163L19.75 0.99996L17.75 0.99996ZM5.25 0.999961L5.25 8.29163L7.25 8.29163L7.25 0.999961L5.25 0.999961Z" fill="#BC0000"/>
</svg>
