<svg width="28" height="29" viewBox="0 0 28 29" fill="none" xmlns="http://www.w3.org/2000/svg">
<path d="M10.1678 27.67L11.7951 16.2788C11.8213 16.0954 11.8769 15.9174 11.9598 15.7517V15.7517C12.595 14.4812 14.4081 14.4812 15.0433 15.7517V15.7517C15.1262 15.9174 15.1818 16.0954 15.208 16.2788L16.8353 27.67H26.0031V1H1V27.67H10.1678ZM1 7.6675L1.33331 7.7281C5.11903 8.41641 7.76729 4.73289 6.83406 1V1C8.28378 4.62428 5.17672 8.4269 1.33621 7.72863L1 7.6675Z" stroke="#BC0000" stroke-width="2"/>
<path d="M26.3662 7.6675L26.03 7.72863C22.1895 8.4269 19.0824 4.62428 20.5321 1" stroke="#BC0000" stroke-width="2"/>
</svg>
