<svg width="32" height="29" viewBox="0 0 32 29" fill="none" xmlns="http://www.w3.org/2000/svg">
<path d="M6 1V0C5.73478 0 5.48043 0.105357 5.29289 0.292893L6 1ZM1 6L0.292893 5.29289C0.0808085 5.50498 -0.0248817 5.80106 0.00496281 6.0995L1 6ZM11 1H12C12 0.447715 11.5523 0 11 0V1ZM11.3806 2.91342L10.4567 3.2961L10.4567 3.2961L11.3806 2.91342ZM12.4645 4.53553L11.7574 5.24264L11.7574 5.24264L12.4645 4.53553ZM14.0866 5.6194L14.4693 4.69552L14.4693 4.69552L14.0866 5.6194ZM17.9134 5.6194L18.2961 6.54328L18.2961 6.54328L17.9134 5.6194ZM19.5355 4.53553L20.2426 5.24264L20.2426 5.24264L19.5355 4.53553ZM20.6194 2.91342L21.5433 3.2961L21.5433 3.2961L20.6194 2.91342ZM21 1V0C20.4477 0 20 0.447715 20 1L21 1ZM26 1L26.7071 0.292893C26.5196 0.105357 26.2652 0 26 0V1ZM31 6L31.995 6.0995C32.0249 5.80106 31.9192 5.50498 31.7071 5.29289L31 6ZM30.1667 14.3333L29.6522 15.1908C29.9459 15.367 30.3093 15.3807 30.6154 15.227C30.9215 15.0733 31.1276 14.7736 31.1617 14.4328L30.1667 14.3333ZM26 11.8333L26.5145 10.9758C26.2056 10.7905 25.8208 10.7856 25.5073 10.9631C25.1938 11.1406 25 11.4731 25 11.8333H26ZM26 27.6667V28.6667C26.5523 28.6667 27 28.219 27 27.6667H26ZM6 27.6667H5C5 28.219 5.44772 28.6667 6 28.6667V27.6667ZM6 11.8333H7C7 11.4731 6.80621 11.1406 6.4927 10.9631C6.17919 10.7856 5.79443 10.7905 5.4855 10.9758L6 11.8333ZM1.83333 14.3333L0.838296 14.4328C0.872377 14.7736 1.07851 15.0733 1.38459 15.227C1.69068 15.3807 2.05413 15.367 2.34783 15.1908L1.83333 14.3333ZM5.29289 0.292893L0.292893 5.29289L1.70711 6.70711L6.70711 1.70711L5.29289 0.292893ZM11 0H6V2H11V0ZM12.3045 2.53073C12.1035 2.04543 12 1.52529 12 1H10C10 1.78793 10.1552 2.56815 10.4567 3.2961L12.3045 2.53073ZM13.1716 3.82843C12.8001 3.45699 12.5055 3.01604 12.3045 2.53073L10.4567 3.2961C10.7583 4.02405 11.2002 4.68549 11.7574 5.24264L13.1716 3.82843ZM14.4693 4.69552C13.984 4.4945 13.543 4.19986 13.1716 3.82843L11.7574 5.24264C12.3145 5.79979 12.9759 6.24175 13.7039 6.54328L14.4693 4.69552ZM16 5C15.4747 5 14.9546 4.89654 14.4693 4.69552L13.7039 6.54328C14.4319 6.84481 15.2121 7 16 7V5ZM17.5307 4.69552C17.0454 4.89654 16.5253 5 16 5V7C16.7879 7 17.5681 6.84481 18.2961 6.54328L17.5307 4.69552ZM18.8284 3.82843C18.457 4.19986 18.016 4.4945 17.5307 4.69552L18.2961 6.54328C19.0241 6.24175 19.6855 5.79979 20.2426 5.24264L18.8284 3.82843ZM19.6955 2.53073C19.4945 3.01604 19.1999 3.45699 18.8284 3.82843L20.2426 5.24264C20.7998 4.68549 21.2417 4.02406 21.5433 3.2961L19.6955 2.53073ZM20 1C20 1.52529 19.8965 2.04543 19.6955 2.53074L21.5433 3.2961C21.8448 2.56815 22 1.78793 22 1H20ZM26 0H21V2H26V0ZM25.2929 1.70711L30.2929 6.70711L31.7071 5.29289L26.7071 0.292893L25.2929 1.70711ZM30.005 5.9005L29.1716 14.2338L31.1617 14.4328L31.995 6.0995L30.005 5.9005ZM30.6812 13.4758L26.5145 10.9758L25.4855 12.6908L29.6522 15.1908L30.6812 13.4758ZM27 27.6667V11.8333H25V27.6667H27ZM6 28.6667H26V26.6667H6V28.6667ZM5 11.8333V27.6667H7V11.8333H5ZM2.34783 15.1908L6.5145 12.6908L5.4855 10.9758L1.31884 13.4758L2.34783 15.1908ZM0.00496281 6.0995L0.838296 14.4328L2.82837 14.2338L1.99504 5.9005L0.00496281 6.0995Z" fill="#BC0000"/>
</svg>
